<svg xmlns="http://www.w3.org/2000/svg" xmlns:xlink="http://www.w3.org/1999/xlink" viewBox="0 0 64 64"><defs><linearGradient id="a" x1="43.567" y1="2.718" x2="43.567" y2="54.604" gradientUnits="userSpaceOnUse"><stop offset="0" stop-color="#ffb900"/><stop offset="0.166" stop-color="#ef8400"/><stop offset="0.313" stop-color="#e25c01"/><stop offset="0.429" stop-color="#db4401"/><stop offset="0.5" stop-color="#d83b01"/></linearGradient><linearGradient id="b" x1="34.282" y1="4.604" x2="6.721" y2="43.965" gradientUnits="userSpaceOnUse"><stop offset="0" stop-color="#800600"/><stop offset="0.6" stop-color="#c72127"/><stop offset="0.728" stop-color="#c13959"/><stop offset="0.847" stop-color="#bc4b81"/><stop offset="0.942" stop-color="#b95799"/><stop offset="1" stop-color="#b85ba2"/></linearGradient><linearGradient id="c" x1="20.15" y1="52.75" x2="55.797" y2="52.75" gradientUnits="userSpaceOnUse"><stop offset="0" stop-color="#f32b44"/><stop offset="0.6" stop-color="#a4070a"/></linearGradient><linearGradient id="d" x1="34.845" y1="3.798" x2="29.009" y2="12.134" gradientUnits="userSpaceOnUse"><stop offset="0" stop-opacity="0.4"/><stop offset="1" stop-opacity="0"/></linearGradient><linearGradient id="e" x1="44.385" y1="53.552" x2="28.414" y2="52.155" gradientUnits="userSpaceOnUse"><stop offset="0" stop-opacity="0.4"/><stop offset="1" stop-opacity="0"/></linearGradient></defs><title>Union_64x</title><path d="M34.134,58.294l15.012-4.3A5.319,5.319,0,0,0,53,48.877V15.123a5.319,5.319,0,0,0-3.854-5.114l-15.012-4.3L38,15V47Z" fill="url(#a)"/><path d="M19.881,43.881l-5,2.786A2.608,2.608,0,0,1,11,44.388V20.1a5.325,5.325,0,0,1,2.7-4.63L30.024,6.2a5.34,5.34,0,0,1,2.636-.7h0A5.334,5.334,0,0,1,38,10.84V15L24.731,19.769A4.126,4.126,0,0,0,22,23.652V40.275A4.129,4.129,0,0,1,19.881,43.881Z" fill="url(#b)"/><path d="M38,47v6.16a5.334,5.334,0,0,1-5.34,5.34h0a5.34,5.34,0,0,1-2.636-.7L19.977,52.1A2.727,2.727,0,0,1,21.323,47Z" fill="url(#c)"/><path d="M19.881,43.881l-5,2.786A2.608,2.608,0,0,1,11,44.388V20.1a5.325,5.325,0,0,1,2.7-4.63L30.024,6.2a5.34,5.34,0,0,1,2.636-.7h0A5.334,5.334,0,0,1,38,10.84V15L24.731,19.769A4.126,4.126,0,0,0,22,23.652V40.275A4.129,4.129,0,0,1,19.881,43.881Z" fill="url(#d)"/><path d="M38,47v6.16a5.334,5.334,0,0,1-5.34,5.34h0a5.34,5.34,0,0,1-2.636-.7L19.977,52.1A2.727,2.727,0,0,1,21.323,47Z" fill="url(#e)"/><rect width="64" height="64" fill="none"/></svg>