<?xml version="1.0" encoding="UTF-8" standalone="no"?>
<svg
   xmlns:dc="http://purl.org/dc/elements/1.1/"
   xmlns:cc="http://creativecommons.org/ns#"
   xmlns:rdf="http://www.w3.org/1999/02/22-rdf-syntax-ns#"
   xmlns:svg="http://www.w3.org/2000/svg"
   xmlns="http://www.w3.org/2000/svg"
   xmlns:sodipodi="http://sodipodi.sourceforge.net/DTD/sodipodi-0.dtd"
   xmlns:inkscape="http://www.inkscape.org/namespaces/inkscape"
   width="582pt"
   height="578pt"
   viewBox="0 0 582 578"
   version="1.1"
   id="svg3379"
   inkscape:version="0.91 r13725"
   sodipodi:docname="Microsoft-Store-new.svg">
  <metadata
     id="metadata3401">
    <rdf:RDF>
      <cc:Work
         rdf:about="">
        <dc:format>image/svg+xml</dc:format>
        <dc:type
           rdf:resource="http://purl.org/dc/dcmitype/StillImage" />
        <dc:title></dc:title>
      </cc:Work>
    </rdf:RDF>
  </metadata>
  <defs
     id="defs3399" />
  <sodipodi:namedview
     pagecolor="#ffffff"
     bordercolor="#666666"
     borderopacity="1"
     objecttolerance="10"
     gridtolerance="10"
     guidetolerance="10"
     inkscape:pageopacity="0"
     inkscape:pageshadow="2"
     inkscape:window-width="1920"
     inkscape:window-height="1010"
     id="namedview3397"
     showgrid="false"
     inkscape:zoom="1.1515571"
     inkscape:cx="154.46816"
     inkscape:cy="361.25"
     inkscape:window-x="0"
     inkscape:window-y="0"
     inkscape:window-maximized="1"
     inkscape:current-layer="svg3379" />
  <g
     id="#ffffffff" />
  <path
     inkscape:connector-curvature="0"
     style="opacity:1;fill:#ffffff"
     id="path3383"
     d="m 219.41656,65.794312 c 16.16003,-17.57062 39.01153,-28.925842 62.83281,-30.856582 5.80986,-0.264485 11.64616,-0.220404 17.45601,0.01763 23.61851,1.833763 46.24961,13.065559 62.36556,30.371693 16.34517,17.226788 25.9019,40.642525 26.36915,64.375645 0.11461,11.25825 0.0176,22.51649 0.0441,33.77474 l 20.26836,0 c -0.0529,-11.82248 0.11461,-23.64496 -0.0882,-35.45862 -0.68766,-19.49255 -7.65243,-38.526654 -19.13108,-54.228246 19.72176,14.520226 33.53669,36.736966 37.83898,60.849186 1.8514,9.49501 1.62218,19.21042 1.59573,28.83768 39.31128,0.009 78.62257,0 117.94267,0 0.0265,111.50686 0.0353,223.00492 0.009,334.51179 -0.0176,6.77963 0.67884,13.81493 -1.72797,20.32126 -4.58441,13.91191 -18.1613,24.69408 -32.95483,24.93212 -147.52091,-0.0441 -295.04182,-0.0176 -442.553902,-0.0176 -18.178934,-0.24685 -34.347783,-16.55676 -34.682797,-34.69161 0.01763,-115.0157 -0.0088,-230.04022 0.0088,-345.05592 l 158.435313,0 c 0.0265,-11.24062 -0.0617,-22.48123 0.0441,-33.71302 0.432,-23.53917 9.83884,-46.778585 25.92835,-63.970108 M 278.46724,55.72625 c -17.50009,2.803541 -33.89816,11.91064 -45.57076,25.2495 -12.13105,13.717954 -19.10464,31.87044 -19.21925,50.18162 -0.0441,10.77336 -0.009,21.54671 -0.0176,32.32007 l 20.26837,0 c 0.0176,-5.75696 -0.097,-11.51392 0.19395,-17.27087 0.68766,-11.62853 3.50002,-23.12481 8.24312,-33.76592 9.07183,-21.802382 30.18655,-37.28357 53.00279,-42.070748 15.28723,-3.182636 31.71175,-1.77205 45.90578,4.901788 -4.72547,-0.273301 -9.44212,-0.767006 -14.1764,-0.41436 -18.41697,0.969779 -36.3755,8.842615 -49.55567,21.767114 -14.0706,13.576896 -22.61346,32.690346 -23.32757,52.235786 -0.14106,4.86653 -0.0441,9.74187 -0.0705,14.61721 l 114.13408,0 0,-29.69285 c 0.0176,-12.25448 -2.84762,-24.50895 -8.35772,-35.449809 -8.03153,-16.107136 -21.74948,-29.287304 -38.16519,-36.657619 -13.45347,-6.04789 -28.6878,-8.454703 -43.28737,-5.950912"
     sodipodi:nodetypes="ccccccccccccccccccccccccccccccccccccccc" />
  <g
     transform="matrix(0.88161661,0,0,0.88161661,34.418129,34.23244)"
     id="#f25022ff-2">
    <path
       style="opacity:1;fill:#f25022"
       inkscape:connector-curvature="0"
       d="m 169.12,240.2 c 37.51,0.01 75.01,-0.02 112.52,0.01 -0.03,37.5 -0.01,75 -0.01,112.49 -37.5,0.01 -75,-0.01 -112.49,0.02 -0.04,-37.51 -0.01,-75.01 -0.02,-112.52 z"
       id="path3386-6" />
  </g>
  <g
     transform="matrix(0.88161661,0,0,0.88161661,34.418129,34.23244)"
     id="#7fba00ff-1">
    <path
       style="opacity:1;fill:#7fba00"
       inkscape:connector-curvature="0"
       d="m 300.35,240.22 c 37.51,-0.06 75.01,0 112.52,-0.03 0,37.51 0.04,75.02 -0.02,112.54 -37.49,-0.05 -74.99,-0.01 -112.48,-0.03 0,-37.49 0.04,-74.99 -0.02,-112.48 z"
       id="path3389-8" />
  </g>
  <g
     transform="matrix(0.88161661,0,0,0.88161661,34.418129,34.23244)"
     id="#01a4efff-7">
    <path
       style="opacity:1;fill:#01a4ef"
       inkscape:connector-curvature="0"
       d="m 169.14,371.44 c 37.49,0.02 74.99,0 112.49,0.01 0.01,37.49 -0.02,74.99 0.01,112.48 -37.5,0.06 -75.01,0.01 -112.52,0.02 0.02,-37.5 -0.01,-75.01 0.02,-112.51 z"
       id="path3392-9" />
  </g>
  <g
     transform="matrix(0.88161661,0,0,0.88161661,34.418129,34.23244)"
     id="#ffb901ff-2">
    <path
       style="opacity:1;fill:#ffb901"
       inkscape:connector-curvature="0"
       d="m 300.37,371.45 c 37.5,-0.01 75,0.02 112.49,-0.01 0.05,37.5 0.01,75.01 0.02,112.51 -37.51,0 -75.01,0.03 -112.52,-0.01 0.03,-37.5 0.01,-74.99 0.01,-112.49 z"
       id="path3395-0" />
  </g>
</svg>
