#define 1554408812311_width  30
#define 1554408812311_height 30
static unsigned char 1554408812311_bits[] = {
 0x00,0x00,0x00,0xc0,0x00,0x00,0x00,0xc0,0x00,0x00,0x00,0xc0,
 0x00,0x00,0x00,0xc0,0x00,0x00,0x00,0xc0,0x00,0x00,0x00,0xc0,
 0x00,0x00,0x00,0xc0,0x00,0x00,0x00,0xc0,0x00,0x00,0x00,0xc0,
 0x00,0x00,0x00,0xc0,0x00,0x0c,0x18,0xc0,0x00,0x18,0x0c,0xc0,
 0x00,0x30,0x06,0xc0,0x00,0x60,0x03,0xc0,0x00,0xc0,0x01,0xc0,
 0x00,0xc0,0x01,0xc0,0x00,0x60,0x03,0xc0,0x00,0x30,0x06,0xc0,
 0x00,0x18,0x0c,0xc0,0x00,0x0c,0x18,0xc0,0x00,0x00,0x00,0xc0,
 0x00,0x00,0x00,0xc0,0x00,0x00,0x00,0xc0,0x00,0x00,0x00,0xc0,
 0x00,0x00,0x00,0xc0,0x00,0x00,0x00,0xc0,0x00,0x00,0x00,0xc0,
 0x00,0x00,0x00,0xc0,0x00,0x00,0x00,0xc0,0x00,0x00,0x00,0xc0};
