#define 1554414627485_width  30
#define 1554414627485_height 30
static unsigned char 1554414627485_bits[] = {
 0x00,0x00,0x00,0xc0,0x00,0x00,0x00,0xc0,0x00,0x00,0x00,0xc0,
 0x00,0x00,0x00,0xc0,0x00,0x00,0x00,0xc0,0x00,0x00,0x00,0xc0,
 0x00,0x00,0x00,0xc0,0x00,0x00,0x00,0xc0,0x00,0x00,0x00,0xc0,
 0x00,0xf8,0x3f,0xc0,0x00,0x08,0x20,0xc0,0x00,0xfe,0x2f,0xc0,
 0x00,0x02,0x28,0xc0,0x00,0x02,0x28,0xc0,0x00,0x02,0x28,0xc0,
 0x00,0x02,0x28,0xc0,0x00,0x02,0x28,0xc0,0x00,0x02,0x28,0xc0,
 0x00,0x02,0x38,0xc0,0x00,0x02,0x08,0xc0,0x00,0xfe,0x0f,0xc0,
 0x00,0x00,0x00,0xc0,0x00,0x00,0x00,0xc0,0x00,0x00,0x00,0xc0,
 0x00,0x00,0x00,0xc0,0x00,0x00,0x00,0xc0,0x00,0x00,0x00,0xc0,
 0x00,0x00,0x00,0xc0,0x00,0x00,0x00,0xc0,0x00,0x00,0x00,0xc0};