#define 1554408812311_width  28
#define 1554408812311_height 28
static unsigned char 1554408812311_bits[] = {
 0x00,0x00,0x00,0xf0,0x00,0x00,0x00,0xf0,0x00,0x00,0x00,0xf0,
 0x00,0x00,0x00,0xf0,0x00,0x00,0x00,0xf0,0x00,0x00,0x00,0xf0,
 0x00,0x00,0x00,0xf0,0x00,0x00,0x00,0xf0,0x00,0x00,0x00,0xf0,
 0x00,0x06,0x0c,0xf0,0x00,0x0c,0x06,0xf0,0x00,0x18,0x03,0xf0,
 0x00,0xb0,0x01,0xf0,0x00,0xe0,0x00,0xf0,0x00,0xe0,0x00,0xf0,
 0x00,0xb0,0x01,0xf0,0x00,0x18,0x03,0xf0,0x00,0x0c,0x06,0xf0,
 0x00,0x06,0x0c,0xf0,0x00,0x00,0x00,0xf0,0x00,0x00,0x00,0xf0,
 0x00,0x00,0x00,0xf0,0x00,0x00,0x00,0xf0,0x00,0x00,0x00,0xf0,
 0x00,0x00,0x00,0xf0,0x00,0x00,0x00,0xf0,0x00,0x00,0x00,0xf0,
 0x00,0x00,0x00,0xf0};
