#define 1554408818986_width  28
#define 1554408818986_height 28
static unsigned char 1554408818986_bits[] = {
 0x00,0x00,0x00,0xf0,0x00,0x00,0x00,0xf0,0x00,0x00,0x00,0xf0,
 0x00,0x00,0x00,0xf0,0x00,0x00,0x00,0xf0,0x00,0x00,0x00,0xf0,
 0x00,0x00,0x00,0xf0,0x00,0x00,0x00,0xf0,0x00,0x00,0x00,0xf0,
 0x00,0xfe,0x0f,0xf0,0x00,0x02,0x08,0xf0,0x00,0x02,0x08,0xf0,
 0x00,0x02,0x08,0xf0,0x00,0x02,0x08,0xf0,0x00,0x02,0x08,0xf0,
 0x00,0x02,0x08,0xf0,0x00,0x02,0x08,0xf0,0x00,0x02,0x08,0xf0,
 0x00,0xfe,0x0f,0xf0,0x00,0x00,0x00,0xf0,0x00,0x00,0x00,0xf0,
 0x00,0x00,0x00,0xf0,0x00,0x00,0x00,0xf0,0x00,0x00,0x00,0xf0,
 0x00,0x00,0x00,0xf0,0x00,0x00,0x00,0xf0,0x00,0x00,0x00,0xf0,
 0x00,0x00,0x00,0xf0};
