#define 1554414627485_width  28
#define 1554414627485_height 28
static unsigned char 1554414627485_bits[] = {
 0x00,0x00,0x00,0xf0,0x00,0x00,0x00,0xf0,0x00,0x00,0x00,0xf0,
 0x00,0x00,0x00,0xf0,0x00,0x00,0x00,0xf0,0x00,0x00,0x00,0xf0,
 0x00,0x00,0x00,0xf0,0x00,0x00,0x00,0xf0,0x00,0xfc,0x1f,0xf0,
 0x00,0x04,0x10,0xf0,0x00,0xff,0x17,0xf0,0x00,0x01,0x14,0xf0,
 0x00,0x01,0x14,0xf0,0x00,0x01,0x14,0xf0,0x00,0x01,0x14,0xf0,
 0x00,0x01,0x14,0xf0,0x00,0x01,0x14,0xf0,0x00,0x01,0x1c,0xf0,
 0x00,0x01,0x04,0xf0,0x00,0xff,0x07,0xf0,0x00,0x00,0x00,0xf0,
 0x00,0x00,0x00,0xf0,0x00,0x00,0x00,0xf0,0x00,0x00,0x00,0xf0,
 0x00,0x00,0x00,0xf0,0x00,0x00,0x00,0xf0,0x00,0x00,0x00,0xf0,
 0x00,0x00,0x00,0xf0};
